<?xml version="1.0" encoding="UTF-8" standalone="no"?>
<!-- Created with Inkscape (http://www.inkscape.org/) -->

<svg
   version="1.1"
   id="svg1"
   width="1000"
   height="1000"
   viewBox="0 0 1000 1000"
   xmlns="http://www.w3.org/2000/svg"
   xmlns:svg="http://www.w3.org/2000/svg">
  <defs
     id="defs1" />
  <g
     id="g1">
    <path
       style="fill:#048451;fill-opacity:1;stroke-width:0.999999"
       d="M 0.00687439,499.96935 V -0.02791192 H 500.00452 1000.002 V 499.96935 999.96665 H 500.00452 0.00687439 Z M 159.65272,618.59318 c 5.46637,-6.35512 3.25419,-17.74689 -3.98108,-20.50064 -5.43138,-2.06724 -10.41065,-0.63514 -13.47734,3.87625 -2.02579,2.98012 -2.29839,4.31686 -1.83489,8.99994 0.45139,4.56152 1.08919,5.98856 3.73829,8.36345 2.84578,2.55123 3.74458,2.8106 8.24235,2.37842 3.85169,-0.37009 5.58508,-1.10908 7.31267,-3.11742 z m -13.15264,-0.87606 c -3.42808,-2.94872 -4.36547,-9.16234 -2.05589,-13.62857 1.88819,-3.65135 4.92818,-5.15473 8.89135,-4.39711 3.90679,0.74682 5.67058,3.87135 5.67058,10.04526 0,4.31816 -0.4633,5.78622 -2.45459,7.77745 -3.05868,3.05872 -6.64716,3.13119 -10.05145,0.20297 z m 53.30805,-1.57702 c 0.26729,-4.57311 0.5565,-5.16979 2.49998,-5.15772 4.7088,0.0293 6.57588,1.15182 7.21528,4.33802 1.13089,5.63541 1.59549,6.64828 3.04988,6.64828 1.7928,0 1.7855,-0.44873 -0.1115,-6.83648 -1.39209,-4.68775 -1.39209,-5.41645 0,-7.40397 2.00979,-2.86938 1.95149,-5.04073 -0.20591,-7.67324 -1.34819,-1.64502 -3.29997,-2.27773 -8.49995,-2.75538 l -6.74997,-0.62 v 12.72787 c 0,9.73532 0.2939,12.631 1.25,12.31593 0.7287,-0.24014 1.37599,-2.56853 1.55219,-5.58331 z m 0.1978,-11.67133 v -4.49997 h 4.53218 c 3.78558,0 4.66998,0.37064 5.36858,2.24998 1.63848,4.40794 -0.46531,6.71143 -6.15078,6.73464 l -3.74998,0.0153 z m 62.0047,16.4972 c 1.2524,-0.67027 2.0791,-0.67027 2.49329,0 1.59729,2.58443 2.57839,0.56067 2.3016,-4.74727 -0.299,-5.73231 -0.31031,-5.75096 -3.67709,-6.07282 -4.50447,-0.43059 -6.23608,1.35019 -2.11449,2.1745 2.68899,0.53779 3.03809,0.94731 2.46148,2.88748 -2.37387,7.98896 -12.66373,5.31844 -14.00642,-3.63506 -1.6103,-10.73848 8.55356,-16.61263 14.09933,-8.14867 1.95189,2.97905 3.43728,3.29588 3.43728,0.7332 0,-2.8057 -3.61599,-6.02586 -7.60726,-6.77464 -8.13716,-1.52653 -14.15334,5.14529 -13.09624,14.52342 0.8811,7.81752 9.13506,12.57791 15.70852,9.05986 z m 41.54552,-2.82314 c 1.49168,-4.50813 2.67499,-5.35327 6.99016,-4.99233 3.49418,0.29227 3.91948,0.66486 5.21508,4.56819 0.77589,2.3375 2.04808,4.24999 2.82728,4.24999 1.9788,0 1.77009,-1.12287 -2.40009,-12.91597 -3.72328,-10.52936 -6.31657,-14.03771 -8.19296,-11.0839 -1.31179,2.06494 -7.00596,17.84697 -7.71537,21.38381 -0.80769,4.0271 1.8704,3.03808 3.2759,-1.20979 z m 3.00547,-9.42408 c 0.38011,-1.2375 1.25851,-3.59998 1.9521,-5.24998 l 1.26109,-2.99998 1.6153,3.71785 c 2.47407,5.6945 2.16099,6.78209 -1.9521,6.78209 -3.23758,0 -3.50348,-0.20801 -2.87639,-2.24998 z m 49.08887,3.24998 c -0.36048,-5.49997 -0.31558,-9.99755 0.10002,-9.99464 0.41519,0.003 3.14798,4.50291 6.07277,9.99995 4.50248,8.4624 5.69067,9.99464 7.74996,9.99464 2.4278,0 2.43219,-0.0199 2.43219,-10.91818 0,-6.00496 -0.2731,-11.62994 -0.60699,-12.49992 -1.4784,-3.85267 -2.34589,-0.80461 -2.60919,9.16817 l -0.2838,10.74994 -4.38228,-8.49995 c -4.66569,-9.04967 -7.64117,-12.99993 -9.79196,-12.99993 -1.03019,0 -1.32569,2.78603 -1.32569,12.49993 0,10.95042 0.2046,12.49994 1.6503,12.49994 1.46739,0 1.57767,-1.10824 0.99498,-9.99995 z m 54.35445,-2.46861 c 0,-10.67231 -0.21609,-12.38562 -1.49998,-11.89296 -1.21701,0.46702 -1.5,2.81954 -1.5,12.46857 0,9.90484 0.2507,11.89295 1.5,11.89295 1.25308,0 1.49998,-2.05206 1.49998,-12.46856 z m 51.36486,10.39598 c 2.42058,-1.90405 3.68149,-5.92738 1.85759,-5.92738 -0.4276,0 -2.00998,1.40475 -3.51658,3.12168 -2.34839,2.67625 -3.19869,3.02977 -5.95927,2.47765 -4.63808,-0.92761 -6.01608,-2.80185 -6.51906,-8.86638 -0.38321,-4.62152 -0.10422,-5.76501 2.00528,-8.21739 3.54539,-4.12182 7.93576,-3.90991 11.76434,0.56782 l 2.92129,3.41666 0.041,-2.59501 c 0.10469,-6.68516 -11.77435,-9.23994 -16.98043,-3.65189 -4.69128,5.03551 -4.41689,15.23385 0.52449,19.49682 3.4596,2.98451 10.18366,3.07058 13.86174,0.17742 z m 87.76408,1.00318 c 1.40909,-0.75409 2.375,-0.75665 3.27631,-0.009 1.85648,1.54071 2.59407,0.29288 2.59407,-4.38858 0,-4.99549 -1.34169,-6.53329 -5.69997,-6.53329 -3.88339,0 -4.38478,1.5109 -0.8,2.41063 4.90788,1.23181 1.46359,7.58931 -4.11168,7.58931 -4.19387,0 -6.65696,-3.19491 -7.16246,-9.29051 -0.43591,-5.25659 -0.2615,-5.82763 2.67908,-8.76817 3.85829,-3.85829 7.22647,-3.45452 11.31815,1.35677 l 2.72309,3.20199 0.027,-2.59501 c 0.066,-6.32529 -11.03656,-9.01227 -16.40373,-3.97008 -5.43667,5.10747 -5.38917,15.70175 0.09,20.0114 2.84409,2.23712 8.26107,2.70193 11.47064,0.98421 z m 42.8702,-4.43058 v -5.49997 l 3.24999,0.0153 c 4.49857,0.0212 5.67357,1.01128 7.15516,6.02918 1.4117,4.78127 3.62098,6.51639 3.55089,2.7888 -0.024,-1.28333 -0.67989,-4.11914 -1.45729,-6.30178 -1.2271,-3.44546 -1.2213,-4.18066 0.044,-5.57871 0.80149,-0.88564 1.45729,-3.02149 1.45729,-4.74632 0,-4.083 -2.67618,-5.51676 -10.49744,-5.62406 l -6.00248,-0.0824 -0.2808,12.24993 c -0.2396,10.45392 -0.056,12.24994 1.25,12.24994 1.1888,0 1.53078,-1.22863 1.53078,-5.49998 z m 0.1925,-11.74993 c 0.29961,-4.14059 0.4058,-4.25809 4.12729,-4.56451 4.37719,-0.36042 6.68017,1.10021 6.68017,4.23695 0,3.27266 -1.9263,4.57752 -6.75747,4.57752 h -4.35748 z m 65.40069,13.9361 c 5.16458,-6.00425 3.3331,-17.56533 -3.21628,-20.30181 -5.23348,-2.18667 -8.95395,-1.73421 -12.61134,1.53371 -3.06908,2.74222 -3.26578,3.31931 -3.26578,9.58197 0,6.31359 0.1784,6.82342 3.39278,9.69547 3.05749,2.73187 3.89168,2.98352 8.44107,2.54639 3.81498,-0.36656 5.58857,-1.11313 7.25955,-3.05573 z m -12.90143,-0.71383 c -5.31988,-4.18458 -4.15439,-15.70536 1.81849,-17.97624 3.01129,-1.1449 8.14887,0.49912 9.51056,3.04342 0.53839,1.00598 0.9789,4.12908 0.9789,6.94023 0,4.09334 -0.48881,5.59995 -2.4546,7.5657 -2.98478,2.98479 -6.41276,3.13331 -9.85335,0.42689 z m 58.41582,1.02765 c 0.42561,-1.37499 1.73229,-5.80558 2.90378,-9.84575 1.17141,-4.04014 2.3441,-7.13147 2.606,-6.86957 0.2619,0.26191 1.47829,4.69249 2.70299,9.84574 1.85799,7.818 2.56808,9.4189 4.28767,9.66745 1.8208,0.26319 2.4298,-0.98216 5.22619,-10.68694 3.45567,-11.9931 3.80348,-14.49027 1.93129,-13.8662 -0.67861,0.22622 -2.3447,4.98869 -3.70228,10.5833 -1.35771,5.59457 -2.72591,10.17198 -3.04059,10.17198 -0.3146,0 -1.6861,-4.38748 -3.0477,-9.74996 -2.09818,-8.2639 -2.80217,-9.79651 -4.61867,-10.05549 -1.93379,-0.27571 -2.36828,0.62823 -4.44688,9.24995 -1.2669,5.25553 -2.65638,9.55549 -3.08767,9.55549 -0.43131,0 -1.06281,-1.23749 -1.40351,-2.74997 -2.84249,-12.62163 -4.31718,-17.24991 -5.49626,-17.24991 -0.50731,0 -0.92211,1.0125 -0.92171,2.24999 7e-4,2.1952 4.71389,20.45416 5.69318,22.05525 0.9583,1.56692 3.65078,0.16077 4.41417,-2.30536 z m 63.26131,0.74999 c 0.33159,-1.23749 0.6091,-6.18746 0.6166,-10.99993 0.013,-8.58395 0.059,-8.74995 2.43189,-8.74995 3.09528,0 5.58177,-0.95472 5.58177,-2.14319 0,-1.47558 -19.25561,-0.60486 -19.75221,0.89319 -0.2847,0.85886 0.82069,1.25 3.53298,1.25 3.93799,0 3.94899,0.0111 4.58338,4.63953 0.34969,2.55174 0.6359,7.50173 0.6359,10.99995 0,6.316 1.21419,8.42213 2.36969,4.1104 z m 44.43229,-3.57858 0.3023,-5.17137 h 6.39547 6.39546 l 0.30221,5.17137 c 0.17619,3.01478 0.8236,5.34317 1.55229,5.58331 0.9537,0.3143 1.24999,-2.45168 1.24999,-11.67135 0,-10.07401 -0.24939,-12.08325 -1.49999,-12.08325 -1.1515,0 -1.49999,1.27776 -1.49999,5.49996 v 5.49996 h -6.45006 -6.45008 l -0.2999,-5.67096 c -0.4748,-8.97736 -2.46129,-7.7396 -3.01819,1.88057 -0.5863,10.12864 0.081,17.00098 1.60269,16.50026 0.6136,-0.20192 1.2516,-2.69425 1.4178,-5.5385 z M 636.00388,491.96939 V 405.96987 H 381.00508 126.00627 v 85.99952 85.99953 h 254.99881 254.9988 z M 421.6554,524.84371 c -10.94946,-1.66442 -21.7998,-9.89095 -27.25919,-20.6674 -2.61508,-5.16188 -2.89118,-6.66207 -2.89118,-15.70691 0,-9.02509 0.2846,-10.57954 2.91919,-15.94544 5.45678,-11.11382 15.39623,-18.5147 27.47846,-20.46048 12.03276,-1.93783 22.9192,1.62429 31.65156,10.35657 10.83084,10.83086 13.78953,24.5703 8.38266,38.92684 -6.19658,16.45314 -22.8218,26.15086 -40.2815,23.49682 z m 15.42452,-16.45075 c 4.17897,-2.1002 9.72924,-8.98421 10.97885,-13.61692 2.82199,-10.4622 -1.7872,-21.39196 -10.98815,-26.05652 -6.69877,-3.39606 -11.89555,-3.50822 -18.56842,-0.4008 -13.62093,6.34298 -16.25393,26.33465 -4.83887,36.74111 6.02627,5.49384 16.22792,6.94595 23.41659,3.33313 z M 160.22861,506.2193 c -17.08932,-32.16988 -27.45917,-52.34723 -27.08356,-52.69841 0.40069,-0.37456 12.39804,-0.93269 15.03322,-0.69935 1.1075,0.0981 5.15177,6.9016 11.97685,20.14795 5.66757,10.99995 10.57674,19.99989 10.90914,19.99989 0.3324,0 4.93118,-8.99994 10.21966,-19.99989 l 9.61525,-19.99989 h 7.62076 c 7.44437,0 7.60447,0.0521 6.91858,2.24998 -0.8657,2.77405 -34.35304,69.74962 -34.87434,69.74962 -0.2064,0 -4.85738,-8.43746 -10.33556,-18.7499 z m 58.71493,2 c -0.034,-8.66245 -0.1422,-24.52486 -0.24,-35.24981 l -0.1779,-19.49988 19.24001,-0.27161 19.24001,-0.27159 v 6.52155 6.52157 h -11.49995 -11.49994 v 6.47094 6.47094 l 13.24993,0.27903 13.24994,0.27902 v 6.49997 6.49995 l -13.24994,0.27903 -13.24993,0.27902 v 8.47093 8.47093 l 13.24993,0.11848 c 7.28748,0.0652 13.81244,0.0454 14.49994,-0.0438 0.897,-0.11648 1.24999,1.82653 1.24999,6.88148 v 7.04381 h -21.9999 -21.99989 z m 60.06201,-19.73039 V 452.9696 h 7.49997 7.49997 v 28.38321 28.38321 l 2.24998,0.60297 c 1.23751,0.33165 7.78388,0.60913 14.54764,0.61664 l 12.29764,0.0137 -0.2977,6.24998 -0.29769,6.24997 -21.74991,0.2695 -21.7499,0.26949 z m 57.65343,23.32337 c -0.8287,-15.41096 -0.832,-46.71366 -0.01,-53.5927 l 0.63059,-5.24998 h 7.36067 7.36066 v 28.47238 28.47239 l 14.24994,0.27745 c 16.16913,0.31483 15.69332,4.9e-4 14.27873,9.43397 l -0.65139,4.34343 h -21.28491 -21.285 z m 143.98663,9.94818 c -0.3375,-1.26018 -0.61989,-17.03978 -0.62739,-35.0658 l -0.014,-32.77456 2.56509,-0.97525 c 3.38038,-1.28518 19.24401,-1.23326 27.43477,0.0899 14.80993,2.39225 24.92828,13.59195 24.97799,27.64727 0.033,9.33845 -2.88558,16.08831 -9.61636,22.23983 l -5.53407,5.0578 7.02616,7.74483 7.02616,7.74483 -9.68994,0.31456 -9.68995,0.3146 -5.54298,-6.06456 c -4.84728,-5.30341 -6.00188,-6.06454 -9.20006,-6.06454 h -3.65709 l -0.29991,5.74997 -0.29989,5.74997 -7.12247,0.29122 c -6.69456,0.27374 -7.15946,0.15355 -7.73636,-1.99998 z m 32.04275,-26.26345 c 5.80087,-3.42668 8.05056,-10.69102 5.73047,-18.50376 -1.96129,-6.60451 -4.89267,-8.95645 -12.54114,-10.06215 -10.90405,-1.57638 -9.87315,-3.1606 -9.87315,15.1727 v 16.13428 l 6.85167,-0.49023 c 3.92967,-0.28117 8.12276,-1.24107 9.83215,-2.25084 z m 31.46795,27.75113 c 0.4082,-0.94868 18.82361,-36.48398 29.59676,-57.11135 4.11708,-7.88295 7.82887,-13.95792 8.24856,-13.49993 0.7933,0.86584 37.00234,70.30461 37.00234,70.9601 0,0.20473 -3.60589,0.37226 -8.01296,0.37226 h -8.01298 l -2.19709,-4.5222 -2.19699,-4.52219 -17.47391,0.27221 -17.47382,0.27222 -2.07119,3.99998 -2.07109,3.99998 -7.84276,0.29381 c -4.31358,0.16161 -7.68618,-0.0701 -7.49487,-0.51489 z m 46.84778,-22.79697 c 0,-0.28499 -2.30839,-5.11811 -5.12968,-10.74026 l -5.12976,-10.22209 -3.95619,8.49026 c -6.78097,14.55218 -7.29086,12.99026 4.24038,12.99026 5.48637,0 9.97525,-0.23318 9.97525,-0.51817 z M 156.83603,372.97004 c 0.4413,0 2.09279,2.69999 3.67008,5.99998 1.57721,3.29997 3.23229,5.99996 3.67798,5.99996 0.8867,0 16.82192,-31.30916 16.82192,-33.05142 0,-0.61057 -1.40428,-0.93971 -3.24997,-0.76176 -3.01749,0.29093 -3.57438,0.97173 -7.78357,9.51352 -2.49338,5.0601 -4.81738,9.48406 -5.16438,9.83104 -0.34699,0.347 -2.96108,-3.90558 -5.80917,-9.45014 l -5.17827,-10.08105 h -3.99059 c -2.19479,0 -3.83737,0.33749 -3.65008,0.74999 0.1873,0.4125 1.83269,3.61484 3.65648,7.1163 2.95689,5.67693 3.1866,6.67858 2.12149,9.24995 -0.65699,1.586 -1.58579,2.88365 -2.06399,2.88365 -0.47829,0 -3.12778,-4.49998 -5.88776,-9.99995 -4.91718,-9.79853 -5.08859,-9.99994 -8.50906,-9.99994 -1.92,0 -3.4909,0.48217 -3.4909,1.07149 0,0.58932 3.89739,8.53212 8.66087,17.65067 l 8.66086,16.57917 3.35288,-6.65073 c 1.8441,-3.65791 3.71388,-6.65073 4.15518,-6.65073 z m 37.66993,-4.49998 v -16.9999 l -3.24999,-0.31336 -3.24998,-0.31335 -0.20941,8.8133 c -0.62158,26.17153 -0.57359,26.5216 3.58079,26.11752 l 3.12859,-0.3043 z m 23.49989,3.49998 v -13.99992 l 2.49999,-0.125 c 1.37498,-0.0688 2.94997,-0.2375 3.49997,-0.37499 0.55001,-0.13751 1.45,-0.30625 2,-0.375 0.55,-0.0688 0.99999,-1.47499 0.99999,-3.12499 v -2.99997 h -12.49993 -12.49995 v 3.49997 c 0,3.48147 0.024,3.49998 4.49997,3.49998 h 4.49999 v 13.99992 13.99994 h 3.49999 3.49998 z m 22.99988,6.49997 v -7.49995 h 7.99996 7.99997 v 7.49995 7.49997 h 3.49998 3.5 v -17.49992 -17.49989 h -3.5 -3.49998 v 6.49996 6.49997 h -7.99997 -7.99996 v -6.49997 -6.49996 h -3.49998 -3.49998 v 17.49989 17.49992 h 3.49998 3.49998 z"
       id="path20" />
    <path
       style="fill:#ffffff;fill-opacity:1;stroke-width:1.23916"
       d="M 127.01363,491.94548 V 407.0632 h 254.02726 254.02726 v 84.88228 84.88228 H 381.04089 127.01363 Z m 79.23917,-37.48451 c 0.047,-1.08854 -2.34921,-1.54895 -8.06154,-1.54895 h -8.12845 l -9.26563,19.41717 c -8.32225,17.44022 -9.42775,19.17498 -10.85799,17.03841 -0.87579,-1.30831 -5.64741,-10.00652 -10.60358,-19.32934 -4.95618,-9.32283 -9.83981,-17.26855 -10.85253,-17.65716 -2.5865,-0.99254 -15.27366,0.64007 -15.27366,1.96545 0,2.0188 30.71733,61.36476 35.72911,69.02872 1.86561,2.85287 2.37564,2.0137 19.58144,-32.21809 9.71626,-19.331 17.69604,-35.84429 17.73283,-36.69621 z m 237.55421,67.4136 c 13.47218,-6.89202 20.82932,-19.00053 20.82015,-34.26614 -0.005,-7.63784 -0.59002,-10.41159 -3.28578,-15.5681 -6.58283,-12.59173 -19.19295,-20.63731 -32.50807,-20.74098 -15.15999,-0.11802 -28.28171,7.62285 -34.6773,20.45713 -4.08462,8.19677 -4.50056,23.40563 -0.85934,31.42242 4.31031,9.48992 12.8796,17.21424 23.53391,21.21335 6.6104,2.48122 19.5689,1.27181 26.97643,-2.51768 z M 263.32094,517.3482 v -7.43494 h -14.25031 -14.25031 v -8.05452 -8.05453 l 8.36431,-0.0136 c 4.60038,-0.007 10.45539,-0.35927 13.01116,-0.78171 l 4.64684,-0.76807 v -6.65323 -6.65324 h -13.01116 -13.01115 v -6.19578 -6.19579 h 11.15242 11.15241 v -6.81536 -6.81537 h -20.01694 -20.01695 l 0.81001,15.06444 c 0.4455,8.28544 0.81001,24.45644 0.81001,35.93556 v 20.87113 h 22.30483 22.30483 z m 58.7463,6.10294 c 0.31442,-0.31441 0.95624,-3.47077 1.42629,-7.01411 l 0.85462,-6.44245 -14.71435,-0.35045 -14.71435,-0.35045 -0.33304,-28.19083 -0.33306,-28.19083 h -8.03126 -8.03126 v 36.09165 36.09164 l 21.65237,-0.53624 c 11.9088,-0.29494 21.90961,-0.79351 22.22404,-1.10793 z m 59.27065,-3.93441 c 0.9692,-9.15844 0.26433,-9.60347 -15.21048,-9.60347 h -13.58714 v -28.50062 -28.50062 h -7.87799 -7.878 l -0.7961,7.61672 c -1.02141,9.77228 -1.01568,30.04196 0.0139,49.18997 l 0.81,15.06444 h 21.98425 21.98425 z m 112.15653,4.48539 c 2.35368,-0.63076 2.78811,-1.5935 2.78811,-6.17886 0,-4.8332 0.31234,-5.43169 2.83468,-5.43169 1.76184,0 5.14436,2.34494 8.93731,6.19579 5.99221,6.08368 6.238,6.19548 13.58415,6.17887 4.11484,-0.009 8.72532,-0.35032 10.24549,-0.7578 2.60215,-0.69749 2.3681,-1.1853 -3.9972,-8.33111 l -6.76117,-7.59024 4.79183,-4.97291 c 8.50965,-8.83123 11.37226,-18.3257 8.7814,-29.12556 -1.8415,-7.67626 -9.17025,-16.2755 -16.40119,-19.24449 -5.86275,-2.40722 -27.44675,-3.9554 -35.10764,-2.51821 l -4.62957,0.86852 0.68859,34.53286 c 0.37872,18.99307 1.05333,35.12303 1.49914,35.84436 0.8799,1.42371 8.26593,1.73111 12.74607,0.53047 z m 64.33472,0.0265 c 1.47766,-0.39636 3.35758,-2.34042 4.1776,-4.32013 l 1.49096,-3.59948 h 17.58794 17.58794 l 2.06819,4.33705 c 2.05115,4.30131 2.13474,4.33705 10.14277,4.33705 5.28343,0 8.07457,-0.49517 8.07457,-1.43249 0,-0.78786 -6.65917,-14.31017 -14.79814,-30.04956 -19.20653,-37.14214 -21.61569,-41.60531 -22.46466,-41.61781 -1.8207,-0.0268 -38.69487,71.07858 -37.48677,72.28669 1.00125,1.00124 9.96174,1.03984 13.6196,0.0587 z"
       id="path21" />
    <path
       style="fill:#ffffff;fill-opacity:1;stroke-width:0.309789"
       d="m 143.04458,373.82142 c -5.97218,-11.46734 -10.91942,-21.33733 -10.91942,-21.7848 0,-0.39163 1.94335,-0.8904 3.46929,-0.8904 3.01648,0 3.34924,0.40032 8.38843,10.09161 3.66547,7.04935 5.29401,9.73491 5.9033,9.73491 0.61174,0 1.33022,-0.89886 2.08825,-2.61251 1.18229,-2.67275 0.84709,-4.05814 -2.6194,-10.82627 -1.64882,-3.21923 -2.91306,-5.93793 -2.80943,-6.04156 0.10363,-0.10362 1.75204,-0.23805 3.66315,-0.29872 l 3.47473,-0.1103 3.15414,6.14976 c 3.35531,6.54201 5.97774,11.21556 7.11842,12.68608 0.68676,0.88534 0.70419,0.88947 1.17916,0.27905 0.26516,-0.34077 2.25167,-4.10274 4.41447,-8.35992 4.57098,-8.99738 5.4708,-10.17832 8.00132,-10.50109 1.61623,-0.20616 3.21109,0.15578 3.21109,0.72872 0,1.46481 -14.91112,30.8439 -16.4208,32.35358 -0.43114,0.43114 -0.85172,-0.20563 -3.59838,-5.44805 -2.6137,-4.98865 -3.5431,-6.35676 -4.08911,-6.01931 -0.70218,0.43398 -2.29997,3.06369 -4.81317,7.92174 l -2.55297,4.93494 z"
       id="path22" />
    <path
       style="fill:#ffffff;fill-opacity:1;stroke-width:0.309789"
       d="m 189.37645,385.40726 c -1.68499,-0.83753 -1.95527,-4.62147 -1.52625,-21.36778 0.17845,-6.96539 0.38968,-12.72958 0.4694,-12.8093 0.0797,-0.0797 1.4788,-0.045 3.10908,0.0773 l 2.96413,0.22223 v 16.84078 16.84078 l -0.69702,0.14259 c -1.73445,0.35483 -3.66492,0.3787 -4.31934,0.0534 z"
       id="path23" />
    <path
       style="fill:#ffffff;fill-opacity:1;stroke-width:0.309789"
       d="m 211.12144,371.94662 v -13.896 l -4.08418,-0.16565 c -4.96833,-0.2015 -4.89971,-0.14535 -4.89971,-4.00985 v -2.7289 h 12.43137 12.43138 l -0.14247,2.46109 c -0.0784,1.3536 -0.31118,2.66437 -0.51738,2.91283 -0.36477,0.43952 -3.92278,1.07132 -6.8547,1.21719 l -1.39405,0.0694 -0.0806,14.01797 -0.0806,14.01797 h -3.40453 -3.40452 z"
       id="path24" />
    <path
       style="fill:#ffffff;fill-opacity:1;stroke-width:0.309789"
       d="m 234.04585,368.49442 v -17.3482 h 3.40768 3.40768 v 6.50558 6.50557 h 8.20942 8.20942 v -6.50557 -6.50558 h 3.25279 3.25279 v 17.3482 17.34821 h -3.25279 -3.25279 v -7.43495 -7.43494 h -8.20942 -8.20942 v 7.43494 7.43495 h -3.40768 -3.40768 z"
       id="path25" />
    <path
       style="fill:#ffffff;fill-opacity:1;stroke-width:0.309789"
       d="m 146.68525,621.06805 c -0.59634,-0.30474 -1.94899,-1.41756 -3.00589,-2.47293 -2.22626,-2.22304 -2.72968,-3.51698 -3.15295,-8.10409 -0.31057,-3.36571 -0.0423,-5.11934 1.10581,-7.22882 1.13363,-2.08284 4.01316,-4.70264 5.86086,-5.33222 3.37754,-1.15084 8.20364,-0.25177 10.76876,2.00613 6.51059,5.73085 5.1654,18.26818 -2.24158,20.89185 -0.84755,0.30021 -2.83091,0.56694 -4.84306,0.65129 -2.85454,0.11968 -3.58368,0.0529 -4.49195,-0.41121 z m 7.43495,-1.66859 c 1.71461,-0.77524 3.25025,-2.20975 4.1193,-3.84803 0.5321,-1.00308 0.68044,-1.9241 0.77863,-4.83421 0.2526,-7.48636 -1.56714,-10.6328 -6.54397,-11.31495 -4.46561,-0.61208 -8.24397,2.6757 -9.23099,8.03245 -1.41551,7.68227 4.92438,14.65615 10.87703,11.96474 z"
       id="path26" />
    <path
       style="fill:#ffffff;fill-opacity:1;stroke-width:0.309789"
       d="m 211.48488,621.12548 c -0.35313,-0.44894 -0.9419,-2.14899 -1.3201,-3.81178 -0.78625,-3.45676 -1.20096,-4.40804 -2.29783,-5.27084 -0.94462,-0.74304 -4.70197,-1.43864 -6.2263,-1.15267 -1.3565,0.25448 -1.55105,0.7401 -1.97801,4.93749 -0.46921,4.61276 -1.39438,6.9345 -2.02439,5.08028 -0.13262,-0.39033 -0.30143,-5.98253 -0.37513,-12.42711 l -0.134,-11.71741 1.3425,0.17271 c 0.73838,0.095 2.93468,0.32823 4.88067,0.51831 6.2163,0.60721 8.02391,1.34605 9.51404,3.88875 1.15828,1.97647 1.07725,3.3108 -0.35677,5.87507 -1.48251,2.65098 -1.4831,3.51368 -0.006,8.66461 1.25508,4.37664 1.32243,5.80996 0.27999,5.95863 -0.42002,0.0599 -0.89383,-0.20134 -1.2987,-0.71604 z m -3.53298,-12.70001 c 0.72732,-0.29469 1.5986,-0.88693 1.93618,-1.31609 1.27187,-1.61692 0.47719,-5.84708 -1.26797,-6.74953 -0.63161,-0.32662 -1.95888,-0.45279 -4.76334,-0.45279 h -3.88775 v 4.69071 4.69072 l 3.33024,-0.16362 c 2.09265,-0.10281 3.82166,-0.36272 4.65264,-0.6994 z"
       id="path27" />
    <path
       style="fill:#ffffff;fill-opacity:1;stroke-width:0.309789"
       d="m 254.28258,621.45617 c -2.83203,-0.88553 -5.44689,-3.26732 -6.82262,-6.21453 -0.79954,-1.71284 -0.86764,-2.15184 -0.86764,-5.59276 0,-3.69448 0.0124,-3.75906 1.16863,-6.09811 1.98965,-4.02496 5.18202,-6.12202 9.3196,-6.12202 3.59295,0 6.4431,1.34249 8.63678,4.06813 1.09508,1.36063 1.46815,3.35013 0.74134,3.95333 -0.54384,0.45135 -0.80863,0.22363 -3.73394,-3.21106 -1.77186,-2.08039 -3.40646,-2.93806 -5.59957,-2.93806 -2.8916,0 -5.62202,1.98522 -7.01158,5.09792 -1.43558,3.21579 -1.0617,8.64297 0.79842,11.58958 2.42904,3.84786 7.41692,5.26102 10.30856,2.92062 1.98085,-1.60323 3.24574,-5.04424 2.17783,-5.92455 -0.21298,-0.17556 -1.20864,-0.53309 -2.21258,-0.7945 -1.81117,-0.4716 -2.64288,-0.94788 -2.28326,-1.3075 0.73251,-0.73251 5.14188,-0.79393 6.49592,-0.0905 0.82853,0.43043 1.17166,2.28021 1.17353,6.32644 10e-4,2.85438 -0.10821,3.87758 -0.46428,4.33705 -0.45471,0.58675 -0.48319,0.58066 -1.17335,-0.25058 -0.8691,-1.04676 -1.41411,-1.05877 -3.78195,-0.0834 -2.10816,0.86843 -4.75066,0.99708 -6.86984,0.33445 z"
       id="path28" />
    <path
       style="fill:#ffffff;fill-opacity:1;stroke-width:0.309789"
       d="m 317.57134,620.89424 c -0.4372,-0.5732 -1.13358,-1.94012 -1.54752,-3.0376 -1.61307,-4.27676 -1.89074,-4.51813 -5.55394,-4.82778 -4.03178,-0.34081 -5.15913,0.40288 -6.87632,4.5362 -1.57707,3.79603 -3.25279,5.29748 -3.25279,2.91452 0,-1.80955 5.05002,-16.60473 7.26788,-21.2929 0.47593,-1.00602 1.08064,-1.80949 1.45015,-1.92677 1.40477,-0.44585 3.46851,2.74006 5.95543,9.19374 2.27265,5.89763 4.57545,13.26557 4.4735,14.31321 -0.132,1.35635 -0.93813,1.40994 -1.91639,0.12738 z m -5.18237,-10.34177 c 0.62425,-0.43724 0.70464,-0.70368 0.58425,-1.93618 -0.0768,-0.78605 -0.81684,-3.03076 -1.64456,-4.98826 l -1.50494,-3.55908 -0.83411,1.85524 c -1.21527,2.70303 -2.76284,7.21209 -2.76284,8.0499 0,0.93106 0.2939,1.03144 3.10641,1.06093 1.68919,0.0177 2.53145,-0.11528 3.05579,-0.48255 z"
       id="path29" />
    <path
       style="fill:#ffffff;fill-opacity:1;stroke-width:0.309789"
       d="m 354.01497,621.51487 c -0.62341,-0.79149 -0.71385,-2.3256 -0.70332,-11.93101 0.01,-8.84912 0.19098,-11.82668 0.75437,-12.39007 0.10223,-0.10223 0.65369,0.0372 1.22546,0.30987 2.05455,0.97975 4.79825,5.10706 9.79168,14.72949 1.78706,3.4437 3.35537,6.26127 3.48513,6.26127 0.12976,0 0.23956,-2.12592 0.24401,-4.72428 0.0151,-8.82359 0.72168,-16.65118 1.50307,-16.65118 1.06622,0 1.69296,7.02191 1.52734,17.11223 -0.0998,6.07837 -0.14117,6.46023 -0.76856,7.08761 -0.96933,0.96933 -2.52463,0.5976 -3.90847,-0.93414 -1.14907,-1.27189 -1.968,-2.63431 -6.2569,-10.40944 -2.89635,-5.25064 -4.7435,-8.20942 -5.1251,-8.20942 -0.56466,0 -0.64028,2.88214 -0.27401,10.44388 0.29867,6.16617 0.30715,8.30961 0.0352,8.90644 -0.38656,0.8484 -1.04133,1.01906 -1.52992,0.39875 z"
       id="path30" />
    <path
       style="fill:#ffffff;fill-opacity:1;stroke-width:0.309789"
       d="m 407.7812,621.22391 c -0.64066,-1.12348 -0.58653,-21.11828 0.0607,-22.40111 0.25787,-0.51115 0.66605,-0.92937 0.90707,-0.92937 0.80242,0 0.94875,1.78469 0.95508,11.64897 0.006,9.82483 -0.19385,11.96471 -1.14833,12.27738 -0.20144,0.066 -0.54996,-0.20216 -0.77447,-0.59587 z"
       id="path31" />
    <path
       style="fill:#ffffff;fill-opacity:1;stroke-width:0.309789"
       d="m 451.87034,621.58788 c -4.60668,-0.97129 -7.62191,-5.05286 -8.00662,-10.83819 -0.51805,-7.79023 4.01043,-13.32094 10.90704,-13.32094 5.32876,0 9.1124,2.98139 9.13198,7.19571 l 0.007,1.46461 -2.26086,-2.53815 c -2.68143,-3.01029 -4.49342,-4.08975 -6.84815,-4.07963 -1.95054,0.008 -3.46365,0.71314 -5.14276,2.39534 -2.52097,2.5256 -3.04583,4.45354 -2.50977,9.21899 0.67681,6.01682 2.05936,7.77956 6.77187,8.6341 2.55065,0.46253 3.31437,0.10183 6.45474,-3.04847 2.55736,-2.56545 3.10153,-2.88669 3.43183,-2.02594 0.66536,1.7339 -2.25947,5.49067 -5.01932,6.44701 -1.87562,0.64995 -5.09174,0.88037 -6.91678,0.49556 z"
       id="path32" />
    <path
       style="fill:#ffffff;fill-opacity:1;stroke-width:0.309789"
       d="m 589.96285,621.40101 c -0.53244,-0.64049 -0.75457,-10.16934 -0.42702,-18.31861 l 0.21478,-5.34386 4.5361,0.005 c 9.08783,0.0108 11.79679,1.46039 11.42334,6.11283 -0.12279,1.52964 -0.38861,2.33829 -1.17762,3.58235 -1.27917,2.0169 -1.27788,2.8801 0.0102,6.87317 1.04815,3.24918 1.4288,6.94477 0.74016,7.18596 -0.60056,0.21034 -1.64943,-1.61814 -2.89237,-5.04222 -1.77273,-4.88355 -2.42105,-5.38104 -7.33966,-5.63207 l -3.19826,-0.16323 -0.0175,4.45899 c -0.022,5.61382 -0.65675,7.74338 -1.87221,6.28131 z m 10.58923,-12.89312 c 1.72351,-0.73188 2.45288,-1.87853 2.45288,-3.85625 0,-3.50943 -1.40209,-4.59865 -5.886,-4.57256 -3.18513,0.0185 -4.19771,0.35052 -4.64324,1.52234 -0.15209,0.40003 -0.3756,2.29316 -0.4967,4.20695 l -0.22018,3.47963 3.84177,-0.15444 c 2.42242,-0.0974 4.25175,-0.32854 4.95147,-0.62567 z"
       id="path33" />
    <path
       style="fill:#ffffff;fill-opacity:1;stroke-width:0.309789"
       d="m 644.44519,620.9121 c -1.56326,-0.97707 -4.51181,-3.87787 -5.12054,-5.03762 -0.66802,-1.2727 -0.9233,-8.8783 -0.38503,-11.47114 0.33687,-1.6227 0.59684,-2.05265 2.1746,-3.59649 2.52982,-2.47542 4.81017,-3.53523 7.58467,-3.52501 7.38148,0.0272 12.01982,5.45338 11.54627,13.50748 -0.21459,3.64968 -1.12509,5.8566 -3.30979,8.02247 -2.133,2.11462 -3.16921,2.47048 -7.7718,2.66903 -3.33617,0.14392 -3.63603,0.10777 -4.71838,-0.56872 z m 8.01376,-1.58632 c 1.41851,-0.73546 3.24111,-2.68525 3.94228,-4.21739 0.54428,-1.18931 0.64683,-2.01017 0.64129,-5.13317 -0.009,-5.16967 -0.45254,-6.97391 -2.04969,-8.34101 -1.61083,-1.37881 -3.572,-2.03694 -6.06997,-2.03694 -2.42309,0 -3.74623,0.57675 -5.18835,2.26155 -2.77547,3.2425 -3.37169,9.34103 -1.31571,13.45774 0.85294,1.70784 2.93771,3.597 4.67669,4.23789 1.51293,0.55759 4.05609,0.44915 5.36346,-0.22867 z"
       id="path34" />
    <path
       style="fill:#ffffff;fill-opacity:1;stroke-width:0.309789"
       d="m 699.08955,621.33243 c -0.93228,-0.93228 -5.9273,-19.76538 -5.93389,-22.37297 -10e-4,-0.43599 0.19155,-1.05741 0.42811,-1.38093 0.40886,-0.55914 0.46254,-0.53526 1.08576,0.48292 0.85833,1.40229 1.88249,4.79439 3.61043,11.95806 1.49104,6.18156 2.07131,7.62526 2.76703,6.88431 0.54729,-0.58287 1.74764,-4.42371 3.27873,-10.49118 1.84177,-7.29864 2.4733,-8.42903 4.43425,-7.93686 1.31434,0.32988 2.07774,2.31203 4.82505,12.52802 1.41899,5.27658 2.12371,7.2542 2.50174,7.02057 0.37754,-0.23333 1.32589,-3.29406 3.22532,-10.40945 1.9246,-7.20967 3.09299,-10.27002 3.86016,-10.1109 1.04613,0.21698 0.18567,4.51826 -3.11454,15.56909 -1.62574,5.44382 -2.74464,8.11159 -3.52824,8.41228 -0.24903,0.0956 -0.81107,0.0838 -1.24898,-0.0261 -1.19625,-0.30024 -2.02349,-2.44158 -4.13855,-10.71285 -2.34997,-9.18994 -2.20577,-8.71691 -2.61557,-8.58031 -0.50121,0.16707 -1.24542,2.2617 -3.61862,10.18486 -1.1569,3.86245 -2.34388,7.38956 -2.63773,7.83802 -0.45815,0.69923 -1.90251,1.71309 -2.4405,1.71309 -0.0937,0 -0.42663,-0.25636 -0.73996,-0.56968 z"
       id="path35" />
    <path
       style="fill:#ffffff;fill-opacity:1;stroke-width:0.309789"
       d="m 764.71232,621.12763 c -0.19732,-0.51115 -0.47642,-3.92658 -0.62024,-7.58984 -0.3143,-8.00608 -0.79497,-11.8316 -1.61809,-12.87803 -0.52258,-0.66436 -0.85302,-0.757 -2.81556,-0.78935 -2.847,-0.0469 -4.08222,-0.31578 -4.08222,-0.88851 0,-0.68531 2.68887,-1.17227 8.6741,-1.57089 4.75446,-0.31665 8.64666,-0.2346 10.16191,0.21422 0.46966,0.13912 0.49428,0.24278 0.1549,0.65203 -0.64382,0.77635 -2.2109,1.29652 -4.56516,1.51532 -1.3474,0.12523 -2.33392,0.38042 -2.56992,0.66478 -0.27006,0.32541 -0.44892,2.92736 -0.60641,8.82173 -0.22329,8.35657 -0.52159,11.09893 -1.32653,12.19504 -0.40564,0.55238 -0.4468,0.53425 -0.78678,-0.3465 z"
       id="path36" />
    <path
       style="fill:#ffffff;fill-opacity:1;stroke-width:0.309789"
       d="m 808.75427,621.06464 c -1.53136,-2.86136 -1.08307,-21.79656 0.55481,-23.43444 0.57663,-0.57662 0.99763,1.46664 1.3468,6.53647 l 0.34671,5.03407 h 6.56933 6.56932 l 0.1041,-5.10105 c 0.0889,-4.35581 0.18331,-5.18018 0.64623,-5.64259 0.50851,-0.50795 0.57454,-0.50913 1.0645,-0.0192 0.43067,0.43066 0.56355,1.4892 0.75696,6.02983 0.25824,6.06242 -0.0892,16.3681 -0.56789,16.84683 -0.85147,0.85146 -1.58918,-1.85237 -1.84714,-6.76998 l -0.19907,-3.79492 h -6.56609 -6.56608 l -0.20785,3.42218 c -0.23227,3.82422 -0.65103,6.14887 -1.25693,6.97749 -0.38547,0.52716 -0.42249,0.52296 -0.74771,-0.0847 z"
       id="path37" />
    <path
       style="fill:#ffffff;fill-opacity:1;stroke-width:0.309789"
       d="m 375,550.96035 v -26.95168 h 2.47241 c 2.85847,0 2.5233,0.46965 3.25954,-4.56735 0.54104,-3.70148 0.59479,-6.38111 0.14486,-7.2218 -0.47719,-0.89164 -1.92154,-1.51643 -4.0103,-1.73475 L 375,510.28968 v -52.15537 -52.15538 h 130.42131 130.42132 v 85.96655 85.96654 H 505.42131 375 Z m 55.60719,-25.72193 c 15.23527,-1.4248 27.57395,-11.37026 32.17464,-25.93402 2.36769,-7.49505 2.47213,-15.37322 0.29264,-22.07392 -2.23663,-6.87636 -7.57681,-14.12266 -13.87992,-18.8342 -2.97631,-2.22477 -8.36237,-4.83917 -12.08179,-5.86449 -2.87974,-0.79386 -3.51238,-0.85389 -8.98389,-0.85244 -5.35269,10e-4 -6.18072,0.0764 -9.13878,0.82727 -7.0106,1.77963 -12.38033,4.81125 -17.38687,9.81624 -4.17483,4.17353 -7.27764,9.08789 -9.15935,14.50696 -0.80946,2.33114 -0.84258,2.68722 -0.96153,10.33802 -0.14758,9.49195 0.13412,11.52553 2.20095,15.88866 4.21305,8.89383 12.40849,16.69309 21.05112,20.03346 3.66637,1.41705 5.95335,1.87923 12.00041,2.42519 0.25558,0.0231 1.99814,-0.10146 3.87237,-0.27673 z m 98.17817,-1.49813 c 2.73483,-0.11615 4.6651,-0.32716 4.72787,-0.51682 0.0583,-0.17629 -2.90182,-3.63422 -6.57813,-7.68429 -3.67631,-4.05007 -6.64028,-7.47781 -6.5866,-7.61721 0.0537,-0.13939 1.70638,-1.72387 3.67267,-3.52107 5.46947,-4.99912 7.89435,-8.40447 9.56085,-13.42665 1.73678,-5.234 2.00362,-12.01258 0.67706,-17.19938 -2.35486,-9.20741 -9.27411,-16.34202 -19.02233,-19.61439 -7.53603,-2.52976 -27.61265,-3.15297 -33.59177,-1.04275 l -1.93618,0.68334 0.0186,9.46874 c 0.0457,23.30099 0.57047,57.84308 0.89533,58.92966 0.25422,0.85029 0.58122,1.21824 1.30773,1.4715 1.83856,0.64093 13.10216,0.17944 13.55563,-0.55539 0.1454,-0.23563 0.36574,-2.79199 0.48963,-5.6808 l 0.22526,-5.25239 3.13869,0.10459 c 2.94588,0.0982 3.22638,0.16549 4.56601,1.09589 0.78502,0.54522 3.47544,3.22157 5.9787,5.94747 l 4.55139,4.95616 4.86392,-0.17495 c 2.67516,-0.0962 6.94373,-0.26329 9.48572,-0.37126 z m 30.6154,-0.39192 c 0.30353,-0.16245 1.37948,-1.94631 2.39099,-3.96414 l 1.8391,-3.66878 8.1474,-0.18292 c 4.48107,-0.10061 12.29308,-0.26051 17.36001,-0.35534 l 9.21261,-0.17241 2.24464,4.50195 2.24465,4.50194 7.74968,-0.005 c 4.26233,-0.003 7.93484,-0.12212 8.16114,-0.26559 0.4934,-0.3128 -0.54226,-2.42285 -12.10747,-24.66771 -13.70279,-26.35633 -24.14604,-46.16837 -24.54797,-46.5703 -0.47396,-0.47395 -2.89688,3.21294 -6.58169,10.01516 -6.22845,11.49782 -31.36887,60.22755 -31.36887,60.80234 0,0.18799 0.45307,0.40725 1.00682,0.48724 1.68282,0.24309 13.6586,-0.14075 14.24896,-0.4567 z"
       id="path38" />
    <path
       style="fill:#ffffff;fill-opacity:1;stroke-width:0.309789"
       d="m 572.63672,500.21 -0.6971,-0.56448 0.55158,-1.66063 c 0.30337,-0.91335 1.84058,-4.39175 3.41603,-7.72978 1.57545,-3.33803 3.31531,-7.04166 3.86634,-8.23028 l 1.00188,-2.16114 4.9114,9.91326 c 2.70127,5.45229 4.9148,10.06857 4.91896,10.25839 0.0123,0.55991 -2.42934,0.73913 -10.0695,0.73913 -6.50655,0 -7.26985,-0.0545 -7.89959,-0.56447 z"
       id="path39" />
    <path
       style="fill:#ffffff;fill-opacity:1;stroke-width:0.309789"
       d="m 496.12763,484.21599 c 0,-14.35805 0.14991,-16.37845 1.2918,-17.41015 0.8081,-0.73011 2.46445,-0.68532 7.84073,0.21201 4.62294,0.7716 6.76738,1.49151 8.61292,2.89144 2.88491,2.18835 4.8123,6.63802 5.0959,11.76466 0.20515,3.70841 -0.2034,5.7907 -1.69887,8.65899 -1.87796,3.60188 -4.73813,5.5955 -9.37048,6.5315 -2.21001,0.44655 -8.61246,1.1119 -10.76518,1.11873 l -1.00682,0.003 z"
       id="path40" />
    <path
       style="fill:#ffffff;fill-opacity:1;stroke-width:0.309789"
       d="m 425.93059,510.02707 c -13.26215,-1.18856 -21.96021,-14.15271 -18.54104,-27.63474 2.12818,-8.39153 9.50829,-14.92935 18.03431,-15.97605 7.41751,-0.91061 16.01101,3.67125 20.19001,10.76484 3.66854,6.22713 4.10279,14.39648 1.0835,20.38349 -2.06983,4.10432 -6.57965,9.038 -9.71736,10.63067 -3.02591,1.53592 -6.99981,2.19471 -11.04942,1.83179 z"
       id="path41" />
  </g>
</svg>
