<?xml version="1.0" encoding="UTF-8" standalone="no"?>
<!-- Created with Inkscape (http://www.inkscape.org/) -->

<svg
   version="1.1"
   id="svg1"
   width="1000"
   height="1000"
   viewBox="0 0 1000 1000"
   xmlns="http://www.w3.org/2000/svg"
   xmlns:svg="http://www.w3.org/2000/svg">
  <defs
     id="defs1" />
  <g
     id="g2"
     transform="matrix(1.0037175,0,0,1,-2.5555478e-5,2.7013631e-8)">
    <g
       id="g1">
      <path
         style="fill:#048451;fill-opacity:1;stroke-width:0.999999"
         d="M 0.00687439,499.96935 V -0.02791192 H 500.00452 1000.002 V 499.96935 999.96665 H 500.00452 0.00687439 Z M 159.65272,618.59318 c 5.46637,-6.35512 3.25419,-17.74689 -3.98108,-20.50064 -5.43138,-2.06724 -10.41065,-0.63514 -13.47734,3.87625 -2.02579,2.98012 -2.29839,4.31686 -1.83489,8.99994 0.45139,4.56152 1.08919,5.98856 3.73829,8.36345 2.84578,2.55123 3.74458,2.8106 8.24235,2.37842 3.85169,-0.37009 5.58508,-1.10908 7.31267,-3.11742 z m -13.15264,-0.87606 c -3.42808,-2.94872 -4.36547,-9.16234 -2.05589,-13.62857 1.88819,-3.65135 4.92818,-5.15473 8.89135,-4.39711 3.90679,0.74682 5.67058,3.87135 5.67058,10.04526 0,4.31816 -0.4633,5.78622 -2.45459,7.77745 -3.05868,3.05872 -6.64716,3.13119 -10.05145,0.20297 z m 53.30805,-1.57702 c 0.26729,-4.57311 0.5565,-5.16979 2.49998,-5.15772 4.7088,0.0293 6.57588,1.15182 7.21528,4.33802 1.13089,5.63541 1.59549,6.64828 3.04988,6.64828 1.7928,0 1.7855,-0.44873 -0.1115,-6.83648 -1.39209,-4.68775 -1.39209,-5.41645 0,-7.40397 2.00979,-2.86938 1.95149,-5.04073 -0.20591,-7.67324 -1.34819,-1.64502 -3.29997,-2.27773 -8.49995,-2.75538 l -6.74997,-0.62 v 12.72787 c 0,9.73532 0.2939,12.631 1.25,12.31593 0.7287,-0.24014 1.37599,-2.56853 1.55219,-5.58331 z m 0.1978,-11.67133 v -4.49997 h 4.53218 c 3.78558,0 4.66998,0.37064 5.36858,2.24998 1.63848,4.40794 -0.46531,6.71143 -6.15078,6.73464 l -3.74998,0.0153 z m 62.0047,16.4972 c 1.2524,-0.67027 2.0791,-0.67027 2.49329,0 1.59729,2.58443 2.57839,0.56067 2.3016,-4.74727 -0.299,-5.73231 -0.31031,-5.75096 -3.67709,-6.07282 -4.50447,-0.43059 -6.23608,1.35019 -2.11449,2.1745 2.68899,0.53779 3.03809,0.94731 2.46148,2.88748 -2.37387,7.98896 -12.66373,5.31844 -14.00642,-3.63506 -1.6103,-10.73848 8.55356,-16.61263 14.09933,-8.14867 1.95189,2.97905 3.43728,3.29588 3.43728,0.7332 0,-2.8057 -3.61599,-6.02586 -7.60726,-6.77464 -8.13716,-1.52653 -14.15334,5.14529 -13.09624,14.52342 0.8811,7.81752 9.13506,12.57791 15.70852,9.05986 z m 41.54552,-2.82314 c 1.49168,-4.50813 2.67499,-5.35327 6.99016,-4.99233 3.49418,0.29227 3.91948,0.66486 5.21508,4.56819 0.77589,2.3375 2.04808,4.24999 2.82728,4.24999 1.9788,0 1.77009,-1.12287 -2.40009,-12.91597 -3.72328,-10.52936 -6.31657,-14.03771 -8.19296,-11.0839 -1.31179,2.06494 -7.00596,17.84697 -7.71537,21.38381 -0.80769,4.0271 1.8704,3.03808 3.2759,-1.20979 z m 3.00547,-9.42408 c 0.38011,-1.2375 1.25851,-3.59998 1.9521,-5.24998 l 1.26109,-2.99998 1.6153,3.71785 c 2.47407,5.6945 2.16099,6.78209 -1.9521,6.78209 -3.23758,0 -3.50348,-0.20801 -2.87639,-2.24998 z m 49.08887,3.24998 c -0.36048,-5.49997 -0.31558,-9.99755 0.10002,-9.99464 0.41519,0.003 3.14798,4.50291 6.07277,9.99995 4.50248,8.4624 5.69067,9.99464 7.74996,9.99464 2.4278,0 2.43219,-0.0199 2.43219,-10.91818 0,-6.00496 -0.2731,-11.62994 -0.60699,-12.49992 -1.4784,-3.85267 -2.34589,-0.80461 -2.60919,9.16817 l -0.2838,10.74994 -4.38228,-8.49995 c -4.66569,-9.04967 -7.64117,-12.99993 -9.79196,-12.99993 -1.03019,0 -1.32569,2.78603 -1.32569,12.49993 0,10.95042 0.2046,12.49994 1.6503,12.49994 1.46739,0 1.57767,-1.10824 0.99498,-9.99995 z m 54.35445,-2.46861 c 0,-10.67231 -0.21609,-12.38562 -1.49998,-11.89296 -1.21701,0.46702 -1.5,2.81954 -1.5,12.46857 0,9.90484 0.2507,11.89295 1.5,11.89295 1.25308,0 1.49998,-2.05206 1.49998,-12.46856 z m 51.36486,10.39598 c 2.42058,-1.90405 3.68149,-5.92738 1.85759,-5.92738 -0.4276,0 -2.00998,1.40475 -3.51658,3.12168 -2.34839,2.67625 -3.19869,3.02977 -5.95927,2.47765 -4.63808,-0.92761 -6.01608,-2.80185 -6.51906,-8.86638 -0.38321,-4.62152 -0.10422,-5.76501 2.00528,-8.21739 3.54539,-4.12182 7.93576,-3.90991 11.76434,0.56782 l 2.92129,3.41666 0.041,-2.59501 c 0.10469,-6.68516 -11.77435,-9.23994 -16.98043,-3.65189 -4.69128,5.03551 -4.41689,15.23385 0.52449,19.49682 3.4596,2.98451 10.18366,3.07058 13.86174,0.17742 z m 87.76408,1.00318 c 1.40909,-0.75409 2.375,-0.75665 3.27631,-0.009 1.85648,1.54071 2.59407,0.29288 2.59407,-4.38858 0,-4.99549 -1.34169,-6.53329 -5.69997,-6.53329 -3.88339,0 -4.38478,1.5109 -0.8,2.41063 4.90788,1.23181 1.46359,7.58931 -4.11168,7.58931 -4.19387,0 -6.65696,-3.19491 -7.16246,-9.29051 -0.43591,-5.25659 -0.2615,-5.82763 2.67908,-8.76817 3.85829,-3.85829 7.22647,-3.45452 11.31815,1.35677 l 2.72309,3.20199 0.027,-2.59501 c 0.066,-6.32529 -11.03656,-9.01227 -16.40373,-3.97008 -5.43667,5.10747 -5.38917,15.70175 0.09,20.0114 2.84409,2.23712 8.26107,2.70193 11.47064,0.98421 z m 42.8702,-4.43058 v -5.49997 l 3.24999,0.0153 c 4.49857,0.0212 5.67357,1.01128 7.15516,6.02918 1.4117,4.78127 3.62098,6.51639 3.55089,2.7888 -0.024,-1.28333 -0.67989,-4.11914 -1.45729,-6.30178 -1.2271,-3.44546 -1.2213,-4.18066 0.044,-5.57871 0.80149,-0.88564 1.45729,-3.02149 1.45729,-4.74632 0,-4.083 -2.67618,-5.51676 -10.49744,-5.62406 l -6.00248,-0.0824 -0.2808,12.24993 c -0.2396,10.45392 -0.056,12.24994 1.25,12.24994 1.1888,0 1.53078,-1.22863 1.53078,-5.49998 z m 0.1925,-11.74993 c 0.29961,-4.14059 0.4058,-4.25809 4.12729,-4.56451 4.37719,-0.36042 6.68017,1.10021 6.68017,4.23695 0,3.27266 -1.9263,4.57752 -6.75747,4.57752 h -4.35748 z m 65.40069,13.9361 c 5.16458,-6.00425 3.3331,-17.56533 -3.21628,-20.30181 -5.23348,-2.18667 -8.95395,-1.73421 -12.61134,1.53371 -3.06908,2.74222 -3.26578,3.31931 -3.26578,9.58197 0,6.31359 0.1784,6.82342 3.39278,9.69547 3.05749,2.73187 3.89168,2.98352 8.44107,2.54639 3.81498,-0.36656 5.58857,-1.11313 7.25955,-3.05573 z m -12.90143,-0.71383 c -5.31988,-4.18458 -4.15439,-15.70536 1.81849,-17.97624 3.01129,-1.1449 8.14887,0.49912 9.51056,3.04342 0.53839,1.00598 0.9789,4.12908 0.9789,6.94023 0,4.09334 -0.48881,5.59995 -2.4546,7.5657 -2.98478,2.98479 -6.41276,3.13331 -9.85335,0.42689 z m 58.41582,1.02765 c 0.42561,-1.37499 1.73229,-5.80558 2.90378,-9.84575 1.17141,-4.04014 2.3441,-7.13147 2.606,-6.86957 0.2619,0.26191 1.47829,4.69249 2.70299,9.84574 1.85799,7.818 2.56808,9.4189 4.28767,9.66745 1.8208,0.26319 2.4298,-0.98216 5.22619,-10.68694 3.45567,-11.9931 3.80348,-14.49027 1.93129,-13.8662 -0.67861,0.22622 -2.3447,4.98869 -3.70228,10.5833 -1.35771,5.59457 -2.72591,10.17198 -3.04059,10.17198 -0.3146,0 -1.6861,-4.38748 -3.0477,-9.74996 -2.09818,-8.2639 -2.80217,-9.79651 -4.61867,-10.05549 -1.93379,-0.27571 -2.36828,0.62823 -4.44688,9.24995 -1.2669,5.25553 -2.65638,9.55549 -3.08767,9.55549 -0.43131,0 -1.06281,-1.23749 -1.40351,-2.74997 -2.84249,-12.62163 -4.31718,-17.24991 -5.49626,-17.24991 -0.50731,0 -0.92211,1.0125 -0.92171,2.24999 7e-4,2.1952 4.71389,20.45416 5.69318,22.05525 0.9583,1.56692 3.65078,0.16077 4.41417,-2.30536 z m 63.26131,0.74999 c 0.33159,-1.23749 0.6091,-6.18746 0.6166,-10.99993 0.013,-8.58395 0.059,-8.74995 2.43189,-8.74995 3.09528,0 5.58177,-0.95472 5.58177,-2.14319 0,-1.47558 -19.25561,-0.60486 -19.75221,0.89319 -0.2847,0.85886 0.82069,1.25 3.53298,1.25 3.93799,0 3.94899,0.0111 4.58338,4.63953 0.34969,2.55174 0.6359,7.50173 0.6359,10.99995 0,6.316 1.21419,8.42213 2.36969,4.1104 z m 44.43229,-3.57858 0.3023,-5.17137 h 6.39547 6.39546 l 0.30221,5.17137 c 0.17619,3.01478 0.8236,5.34317 1.55229,5.58331 0.9537,0.3143 1.24999,-2.45168 1.24999,-11.67135 0,-10.07401 -0.24939,-12.08325 -1.49999,-12.08325 -1.1515,0 -1.49999,1.27776 -1.49999,5.49996 v 5.49996 h -6.45006 -6.45008 l -0.2999,-5.67096 c -0.4748,-8.97736 -2.46129,-7.7396 -3.01819,1.88057 -0.5863,10.12864 0.081,17.00098 1.60269,16.50026 0.6136,-0.20192 1.2516,-2.69425 1.4178,-5.5385 z M 636.00388,491.96939 V 405.96987 H 381.00508 126.00627 v 85.99952 85.99953 h 254.99881 254.9988 z M 421.6554,524.84371 c -10.94946,-1.66442 -21.7998,-9.89095 -27.25919,-20.6674 -2.61508,-5.16188 -2.89118,-6.66207 -2.89118,-15.70691 0,-9.02509 0.2846,-10.57954 2.91919,-15.94544 5.45678,-11.11382 15.39623,-18.5147 27.47846,-20.46048 12.03276,-1.93783 22.9192,1.62429 31.65156,10.35657 10.83084,10.83086 13.78953,24.5703 8.38266,38.92684 -6.19658,16.45314 -22.8218,26.15086 -40.2815,23.49682 z m 15.42452,-16.45075 c 4.17897,-2.1002 9.72924,-8.98421 10.97885,-13.61692 2.82199,-10.4622 -1.7872,-21.39196 -10.98815,-26.05652 -6.69877,-3.39606 -11.89555,-3.50822 -18.56842,-0.4008 -13.62093,6.34298 -16.25393,26.33465 -4.83887,36.74111 6.02627,5.49384 16.22792,6.94595 23.41659,3.33313 z M 160.22861,506.2193 c -17.08932,-32.16988 -27.45917,-52.34723 -27.08356,-52.69841 0.40069,-0.37456 12.39804,-0.93269 15.03322,-0.69935 1.1075,0.0981 5.15177,6.9016 11.97685,20.14795 5.66757,10.99995 10.57674,19.99989 10.90914,19.99989 0.3324,0 4.93118,-8.99994 10.21966,-19.99989 l 9.61525,-19.99989 h 7.62076 c 7.44437,0 7.60447,0.0521 6.91858,2.24998 -0.8657,2.77405 -34.35304,69.74962 -34.87434,69.74962 -0.2064,0 -4.85738,-8.43746 -10.33556,-18.7499 z m 58.71493,2 c -0.034,-8.66245 -0.1422,-24.52486 -0.24,-35.24981 l -0.1779,-19.49988 19.24001,-0.27161 19.24001,-0.27159 v 6.52155 6.52157 h -11.49995 -11.49994 v 6.47094 6.47094 l 13.24993,0.27903 13.24994,0.27902 v 6.49997 6.49995 l -13.24994,0.27903 -13.24993,0.27902 v 8.47093 8.47093 l 13.24993,0.11848 c 7.28748,0.0652 13.81244,0.0454 14.49994,-0.0438 0.897,-0.11648 1.24999,1.82653 1.24999,6.88148 v 7.04381 h -21.9999 -21.99989 z m 60.06201,-19.73039 V 452.9696 h 7.49997 7.49997 v 28.38321 28.38321 l 2.24998,0.60297 c 1.23751,0.33165 7.78388,0.60913 14.54764,0.61664 l 12.29764,0.0137 -0.2977,6.24998 -0.29769,6.24997 -21.74991,0.2695 -21.7499,0.26949 z m 57.65343,23.32337 c -0.8287,-15.41096 -0.832,-46.71366 -0.01,-53.5927 l 0.63059,-5.24998 h 7.36067 7.36066 v 28.47238 28.47239 l 14.24994,0.27745 c 16.16913,0.31483 15.69332,4.9e-4 14.27873,9.43397 l -0.65139,4.34343 h -21.28491 -21.285 z m 143.98663,9.94818 c -0.3375,-1.26018 -0.61989,-17.03978 -0.62739,-35.0658 l -0.014,-32.77456 2.56509,-0.97525 c 3.38038,-1.28518 19.24401,-1.23326 27.43477,0.0899 14.80993,2.39225 24.92828,13.59195 24.97799,27.64727 0.033,9.33845 -2.88558,16.08831 -9.61636,22.23983 l -5.53407,5.0578 7.02616,7.74483 7.02616,7.74483 -9.68994,0.31456 -9.68995,0.3146 -5.54298,-6.06456 c -4.84728,-5.30341 -6.00188,-6.06454 -9.20006,-6.06454 h -3.65709 l -0.29991,5.74997 -0.29989,5.74997 -7.12247,0.29122 c -6.69456,0.27374 -7.15946,0.15355 -7.73636,-1.99998 z m 32.04275,-26.26345 c 5.80087,-3.42668 8.05056,-10.69102 5.73047,-18.50376 -1.96129,-6.60451 -4.89267,-8.95645 -12.54114,-10.06215 -10.90405,-1.57638 -9.87315,-3.1606 -9.87315,15.1727 v 16.13428 l 6.85167,-0.49023 c 3.92967,-0.28117 8.12276,-1.24107 9.83215,-2.25084 z m 31.46795,27.75113 c 0.4082,-0.94868 18.82361,-36.48398 29.59676,-57.11135 4.11708,-7.88295 7.82887,-13.95792 8.24856,-13.49993 0.7933,0.86584 37.00234,70.30461 37.00234,70.9601 0,0.20473 -3.60589,0.37226 -8.01296,0.37226 h -8.01298 l -2.19709,-4.5222 -2.19699,-4.52219 -17.47391,0.27221 -17.47382,0.27222 -2.07119,3.99998 -2.07109,3.99998 -7.84276,0.29381 c -4.31358,0.16161 -7.68618,-0.0701 -7.49487,-0.51489 z m 46.84778,-22.79697 c 0,-0.28499 -2.30839,-5.11811 -5.12968,-10.74026 l -5.12976,-10.22209 -3.95619,8.49026 c -6.78097,14.55218 -7.29086,12.99026 4.24038,12.99026 5.48637,0 9.97525,-0.23318 9.97525,-0.51817 z M 156.83603,372.97004 c 0.4413,0 2.09279,2.69999 3.67008,5.99998 1.57721,3.29997 3.23229,5.99996 3.67798,5.99996 0.8867,0 16.82192,-31.30916 16.82192,-33.05142 0,-0.61057 -1.40428,-0.93971 -3.24997,-0.76176 -3.01749,0.29093 -3.57438,0.97173 -7.78357,9.51352 -2.49338,5.0601 -4.81738,9.48406 -5.16438,9.83104 -0.34699,0.347 -2.96108,-3.90558 -5.80917,-9.45014 l -5.17827,-10.08105 h -3.99059 c -2.19479,0 -3.83737,0.33749 -3.65008,0.74999 0.1873,0.4125 1.83269,3.61484 3.65648,7.1163 2.95689,5.67693 3.1866,6.67858 2.12149,9.24995 -0.65699,1.586 -1.58579,2.88365 -2.06399,2.88365 -0.47829,0 -3.12778,-4.49998 -5.88776,-9.99995 -4.91718,-9.79853 -5.08859,-9.99994 -8.50906,-9.99994 -1.92,0 -3.4909,0.48217 -3.4909,1.07149 0,0.58932 3.89739,8.53212 8.66087,17.65067 l 8.66086,16.57917 3.35288,-6.65073 c 1.8441,-3.65791 3.71388,-6.65073 4.15518,-6.65073 z m 37.66993,-4.49998 v -16.9999 l -3.24999,-0.31336 -3.24998,-0.31335 -0.20941,8.8133 c -0.62158,26.17153 -0.57359,26.5216 3.58079,26.11752 l 3.12859,-0.3043 z m 23.49989,3.49998 v -13.99992 l 2.49999,-0.125 c 1.37498,-0.0688 2.94997,-0.2375 3.49997,-0.37499 0.55001,-0.13751 1.45,-0.30625 2,-0.375 0.55,-0.0688 0.99999,-1.47499 0.99999,-3.12499 v -2.99997 h -12.49993 -12.49995 v 3.49997 c 0,3.48147 0.024,3.49998 4.49997,3.49998 h 4.49999 v 13.99992 13.99994 h 3.49999 3.49998 z m 22.99988,6.49997 v -7.49995 h 7.99996 7.99997 v 7.49995 7.49997 h 3.49998 3.5 v -17.49992 -17.49989 h -3.5 -3.49998 v 6.49996 6.49997 h -7.99997 -7.99996 v -6.49997 -6.49996 h -3.49998 -3.49998 v 17.49989 17.49992 h 3.49998 3.49998 z"
         id="path20" />
      <path
         id="path21"
         style="fill:#ffffff;fill-opacity:1;stroke-width:1.23916"
         d="M 375.00049 405.97852 L 375.00049 407.0625 L 127.01418 407.0625 L 127.01418 491.94531 L 127.01418 576.82812 L 375.00049 576.82812 L 375.00049 577.91211 L 505.4219 577.91211 L 635.84331 577.91211 L 635.84331 491.94531 L 635.84331 405.97852 L 505.4219 405.97852 L 375.00049 405.97852 z M 428.12916 451.67969 C 433.60067 451.67824 434.2336 451.73739 437.11334 452.53125 C 440.83276 453.55657 446.21907 456.17171 449.19538 458.39648 C 455.49849 463.10802 460.83879 470.35411 463.07542 477.23047 C 463.8865 479.72408 464.37864 482.38178 464.55819 485.12109 C 464.57586 485.77715 464.60908 486.36026 464.61267 487.10352 C 464.61448 487.27734 464.62696 487.44874 464.62629 487.62305 C 464.62672 489.00873 464.49922 490.33782 464.37916 491.66992 C 464.09572 494.21874 463.57814 496.78317 462.78159 499.30469 C 458.1809 513.86845 445.84155 523.81348 430.60628 525.23828 C 428.73205 525.41355 426.98953 525.53872 426.73395 525.51562 C 420.68689 524.96966 418.40001 524.50689 414.73364 523.08984 C 406.09101 519.74947 397.89604 511.95047 393.68299 503.05664 C 391.61616 498.69351 391.33461 496.65992 391.48219 487.16797 C 391.60114 479.51717 391.634 479.16122 392.44346 476.83008 C 394.32517 471.41101 397.42794 466.4958 401.60277 462.32227 C 406.60931 457.31728 411.97871 454.28549 418.98931 452.50586 C 419.67579 452.3316 420.23541 452.20081 420.77564 452.0918 C 420.85817 452.07636 420.94003 452.05987 421.02276 452.04492 C 422.70899 451.72585 424.19811 451.68042 428.12916 451.67969 z M 492.91371 451.85352 C 494.304 451.83436 495.75331 451.85567 497.20635 451.89258 C 497.77562 451.91701 498.3075 451.92182 498.88176 451.95312 C 499.98497 451.997 501.08636 452.0506 502.17615 452.125 C 504.74649 452.32305 507.15667 452.60815 509.45184 452.91797 C 511.70167 453.26173 513.75474 453.66259 515.23698 454.16016 C 524.9852 457.43253 531.90515 464.56798 534.26001 473.77539 C 535.58657 478.96219 535.31962 485.74061 533.58284 490.97461 C 531.91634 495.99679 529.4902 499.40127 524.02073 504.40039 C 522.05444 506.19759 520.40253 507.78248 520.34883 507.92187 C 520.29515 508.06127 523.25936 511.48899 526.93567 515.53906 C 530.49465 519.45987 533.26433 522.69951 533.39214 523.07031 C 533.37816 523.14046 533.34891 523.20399 533.3143 523.26367 C 533.00922 523.44184 531.32196 523.63254 528.78622 523.74023 C 526.24423 523.8482 521.97516 524.01513 519.3 524.11133 L 515.20973 524.25977 C 514.72951 524.11245 514.24337 523.83785 513.79312 523.58789 L 509.88383 519.33008 C 507.38057 516.60418 504.69107 513.92803 503.90605 513.38281 C 502.56642 512.45241 502.28493 512.38531 499.33905 512.28711 L 496.20032 512.18164 L 495.97655 517.43555 C 495.8678 519.97123 495.68991 521.9853 495.54845 522.66406 C 495.39522 522.90829 495.23461 523.14178 495.01138 523.31055 C 492.93471 523.92438 483.59862 524.25318 481.9311 523.67187 C 481.20459 523.41861 480.87768 523.04951 480.62346 522.19922 C 480.2986 521.11264 479.77405 486.57052 479.72835 463.26953 L 479.7089 453.80078 L 481.64506 453.11719 C 483.88723 452.32585 488.11136 451.91968 492.91371 451.85352 z M 145.00589 452.08398 C 146.55904 452.04979 147.83657 452.13272 148.4832 452.38086 C 149.49592 452.76947 154.37925 460.71623 159.33543 470.03906 C 164.2916 479.36188 169.0628 488.05888 169.93859 489.36719 C 171.36883 491.50376 172.47441 489.7703 180.79666 472.33008 L 190.063 452.91211 L 198.19098 452.91211 C 203.90331 452.91211 206.29981 453.3724 206.25281 454.46094 C 206.21602 455.31286 198.23617 471.82525 188.51991 491.15625 C 171.31411 525.38804 170.80401 526.22787 168.9384 523.375 C 163.92662 515.71104 133.2099 456.3645 133.2099 454.3457 C 133.2099 453.35167 140.34644 452.18656 145.00589 452.08398 z M 582.09585 452.5 C 582.49778 452.90193 592.94048 472.71398 606.64327 499.07031 C 616.74027 518.49118 618.80918 522.56073 618.844 523.49023 C 618.81166 523.58274 618.72025 523.66526 618.62801 523.74805 C 618.24796 523.8869 614.75002 524.00098 610.58953 524.00391 L 603.22239 524.00781 C 603.0106 523.88324 602.80207 523.74562 602.625 523.57617 L 600.59544 519.50586 L 598.35182 515.00391 L 589.13803 515.17773 C 584.0711 515.27256 576.2598 515.43259 571.77873 515.5332 L 563.63129 515.71484 L 561.79242 519.38477 C 561.02135 520.92295 560.3179 522.08465 559.84264 522.73633 C 559.59293 522.96968 559.3431 523.20011 559.08763 523.38086 C 557.77515 523.68952 546.77514 524.03928 545.15116 523.80469 C 544.7503 523.74678 544.47025 523.61378 544.30859 523.47461 C 544.36843 523.17129 544.5267 522.68995 544.80285 521.99219 C 546.70046 517.8077 569.5386 473.54428 575.5129 462.51562 C 579.19771 455.7134 581.62189 452.02605 582.09585 452.5 z M 217.09143 452.91211 L 237.10881 452.91211 L 257.12424 452.91211 L 257.12424 459.72656 L 257.12424 466.54297 L 245.97234 466.54297 L 234.82044 466.54297 L 234.82044 472.73828 L 234.82044 478.93359 L 247.83067 478.93359 L 260.84284 478.93359 L 260.84284 485.58789 L 260.84284 492.24023 L 256.19605 493.00977 C 253.64028 493.43221 247.78426 493.78402 243.18388 493.79102 L 234.82044 493.80469 L 234.82044 501.85937 L 234.82044 509.91406 L 249.0702 509.91406 L 263.32191 509.91406 L 263.32191 517.34766 L 263.32191 524.7832 L 241.01616 524.7832 L 218.71041 524.7832 L 218.71041 503.91211 C 218.71041 492.43299 218.34642 476.262 217.90092 467.97656 L 217.09143 452.91211 z M 278.19046 452.91211 L 286.22115 452.91211 L 294.25379 452.91211 L 294.58654 481.10352 L 294.91929 509.29297 L 309.63412 509.64453 L 324.34895 509.99414 L 323.49275 516.4375 C 323.0227 519.98084 322.38084 523.13676 322.06642 523.45117 C 321.75199 523.76559 311.75119 524.26365 299.84239 524.55859 L 278.19046 525.0957 L 278.19046 489.00391 L 278.19046 452.91211 z M 336.78514 452.91211 L 344.6621 452.91211 L 352.54102 452.91211 L 352.54102 481.41211 L 352.54102 509.91406 L 366.12723 509.91406 C 369.92432 509.91406 372.78846 509.94535 375.00049 510.12109 L 375.00049 510.28906 L 376.8666 510.48437 C 377.8032 510.58227 378.58638 510.77273 379.23475 511.02148 C 379.33623 511.06724 379.46818 511.10065 379.56166 511.15039 C 379.74436 511.23412 379.88952 511.33167 380.04035 511.42773 C 380.39486 511.68067 380.68183 511.97494 380.90238 512.32031 C 381.31463 513.23265 381.25793 515.83745 380.73114 519.44141 C 379.9949 524.47841 380.33024 524.00781 377.47177 524.00781 L 375.00049 524.00781 L 375.00049 524.7832 L 358.79706 524.7832 L 336.81238 524.7832 L 336.00289 509.71875 C 334.97331 490.57074 334.96591 470.30158 335.98732 460.5293 L 336.78514 452.91211 z M 499.20672 466.29883 C 498.28798 466.31511 497.77394 466.48722 497.4204 466.80664 C 496.27851 467.83834 496.12832 469.85875 496.12832 484.2168 L 496.12832 497.98633 L 497.13435 497.98242 C 499.28707 497.97559 505.68901 497.31178 507.89902 496.86523 C 512.53137 495.92923 515.39247 493.93391 517.27043 490.33203 C 518.7659 487.46374 519.17435 485.38224 518.9692 481.67383 C 518.6856 476.54719 516.75782 472.09851 513.87291 469.91016 C 512.02737 468.51023 509.88333 467.78918 505.26039 467.01758 C 502.23623 466.51283 500.38796 466.2779 499.20672 466.29883 z M 427.53566 466.30273 C 426.8242 466.29401 426.11976 466.33065 425.42437 466.41602 C 416.89835 467.46272 409.51803 474.00105 407.38985 482.39258 C 403.97068 495.87461 412.66815 508.83878 425.9303 510.02734 C 429.97991 510.39026 433.95316 509.73123 436.97907 508.19531 C 440.11678 506.60264 444.62702 501.66877 446.69685 497.56445 C 449.71614 491.57744 449.28153 483.40877 445.61299 477.18164 C 441.82577 470.75307 434.41308 466.38704 427.53566 466.30273 z M 580.77459 479.86328 L 579.7744 482.02539 C 579.22337 483.21401 577.48337 486.91783 575.90792 490.25586 C 574.33247 493.59389 572.7943 497.07102 572.49093 497.98437 L 571.94024 499.64648 L 572.63687 500.21094 C 573.26661 500.72091 574.03064 500.77539 580.53719 500.77539 C 588.17735 500.77539 590.61753 500.59507 590.60523 500.03516 C 590.60107 499.84534 588.38729 495.22963 585.68602 489.77734 L 580.77459 479.86328 z " />
      <path
         id="path22"
         style="fill:#ffffff;fill-opacity:1;stroke-width:0.309789"
         d="M 153.68262 351.08398 L 150.2092 351.19336 C 148.29809 351.25403 146.64872 351.38857 146.54509 351.49219 C 146.44146 351.59582 147.70613 354.31397 149.35495 357.5332 C 152.82144 364.30133 153.15641 365.68662 151.97412 368.35937 C 151.21609 370.07302 150.49792 370.97266 149.88618 370.97266 C 149.27689 370.97266 147.64782 368.28763 143.98235 361.23828 C 138.94316 351.54699 138.61009 351.14648 135.59361 351.14648 C 134.06767 351.14648 132.12603 351.64548 132.12603 352.03711 C 132.12603 352.48458 137.07225 362.35493 143.04443 373.82227 L 149.28685 385.80859 L 151.83986 380.87305 C 154.35306 376.015 155.95181 373.3871 156.65399 372.95312 C 157.2 372.61567 158.12861 373.98205 160.74231 378.9707 C 163.48897 384.21312 163.91107 384.85106 164.34221 384.41992 C 165.85189 382.91024 180.76164 353.53122 180.76164 352.06641 C 180.76164 351.49347 179.16715 351.13173 177.55092 351.33789 C 175.0204 351.66066 174.12039 352.84051 169.54941 361.83789 C 167.38661 366.09507 165.40129 369.85845 165.13613 370.19922 C 164.66116 370.80964 164.64368 370.80526 163.95692 369.91992 C 162.81624 368.4494 160.19222 363.77443 156.83691 357.23242 L 153.68262 351.08398 z M 202.13725 351.14648 L 202.13725 353.875 C 202.13725 357.7395 202.06868 357.68327 207.03701 357.88477 L 211.12143 358.05078 L 211.12143 371.94727 L 211.12143 385.8418 L 214.52674 385.8418 L 217.9301 385.8418 L 218.01183 371.82422 L 218.09161 357.80664 L 219.48487 357.73828 C 222.41679 357.59241 225.97548 356.95905 226.34025 356.51953 C 226.54645 356.27107 226.77945 354.96102 226.85785 353.60742 L 226.9999 351.14648 L 214.56955 351.14648 L 202.13725 351.14648 z M 234.04598 351.14648 L 234.04598 368.49414 L 234.04598 385.8418 L 237.45323 385.8418 L 240.86049 385.8418 L 240.86049 378.4082 L 240.86049 370.97266 L 249.0702 370.97266 L 257.27992 370.97266 L 257.27992 378.4082 L 257.27992 385.8418 L 260.53345 385.8418 L 263.78503 385.8418 L 263.78503 368.49414 L 263.78503 351.14648 L 260.53345 351.14648 L 257.27992 351.14648 L 257.27992 357.65234 L 257.27992 364.1582 L 249.0702 364.1582 L 240.86049 364.1582 L 240.86049 357.65234 L 240.86049 351.14648 L 237.45323 351.14648 L 234.04598 351.14648 z M 188.60942 351.19141 C 188.44157 351.19745 188.3394 351.21054 188.31948 351.23047 C 188.23976 351.31019 188.02897 357.07367 187.85052 364.03906 C 187.4215 380.78537 187.69111 384.57067 189.3761 385.4082 C 190.03052 385.7335 191.96153 385.70835 193.69598 385.35352 L 194.39261 385.21094 L 194.39261 368.37109 L 194.39261 351.5293 L 191.42901 351.30664 C 190.2063 351.21492 189.11296 351.17327 188.60942 351.19141 z " />
      <path
         id="path26"
         style="fill:#ffffff;fill-opacity:1;stroke-width:0.309789"
         d="M 197.12853 596.76367 L 197.26279 608.48047 C 197.33649 614.92505 197.50573 620.51787 197.63835 620.9082 C 198.26836 622.76242 199.19287 620.44088 199.66208 615.82812 C 200.08904 611.63073 200.28455 611.1451 201.64105 610.89062 C 203.16538 610.60465 206.92328 611.29993 207.8679 612.04297 C 208.96477 612.90577 209.3778 613.85769 210.16405 617.31445 C 210.54225 618.97724 211.13218 620.67606 211.48531 621.125 C 211.89018 621.6397 212.3632 621.9017 212.78322 621.8418 C 213.82566 621.69313 213.75809 620.25945 212.50301 615.88281 C 211.02591 610.73188 211.02634 609.86973 212.50885 607.21875 C 213.94287 604.65448 214.02518 603.32022 212.8669 601.34375 C 211.37677 598.80105 209.56779 598.06229 203.35149 597.45508 C 201.4055 597.265 199.20957 597.03055 198.47119 596.93555 L 197.12853 596.76367 z M 370.31479 597.11914 C 369.5334 597.11914 368.82766 604.94594 368.81256 613.76953 C 368.80811 616.36789 368.69714 618.49414 368.56738 618.49414 C 368.43762 618.49414 366.86935 615.67612 365.08229 612.23242 C 360.08886 602.60999 357.34511 598.48366 355.29056 597.50391 C 354.71879 597.23124 354.16883 597.09113 354.0666 597.19336 C 353.50321 597.75675 353.32159 600.73486 353.31159 609.58398 C 353.30106 619.18939 353.39065 620.72413 354.01406 621.51562 C 354.50265 622.13593 355.15891 621.96363 355.54547 621.11523 C 355.81742 620.5184 355.80912 618.37515 355.51045 612.20898 C 355.14418 604.64724 355.21821 601.76562 355.78287 601.76562 C 356.16447 601.76562 358.012 604.72397 360.90835 609.97461 C 365.19725 617.74974 366.01726 619.11288 367.16633 620.38477 C 368.55017 621.91651 370.10435 622.28769 371.07368 621.31836 C 371.70107 620.69098 371.74251 620.30884 371.84231 614.23047 C 372.00793 604.14015 371.38101 597.11914 370.31479 597.11914 z M 693.94178 597.2168 C 693.83959 597.24081 693.73706 597.36845 693.58374 597.57812 C 693.34718 597.90164 693.15464 598.52299 693.15564 598.95898 C 693.16223 601.56657 698.15638 620.39975 699.08866 621.33203 C 699.40199 621.64535 699.73635 621.90234 699.83005 621.90234 C 700.36804 621.90234 701.81205 620.88868 702.2702 620.18945 C 702.56405 619.74099 703.74998 616.21401 704.90688 612.35156 C 707.28008 604.4284 708.02503 602.33309 708.52624 602.16602 C 708.93604 602.02942 708.79154 601.55615 711.14151 610.74609 C 713.25657 619.01736 714.08417 621.15874 715.28042 621.45898 C 715.71833 621.56888 716.28066 621.58193 716.52969 621.48633 C 717.31329 621.18564 718.43185 618.51609 720.05759 613.07227 C 723.3578 602.02144 724.21909 597.72089 723.17296 597.50391 C 722.40579 597.34479 721.23691 600.40556 719.31231 607.61523 C 717.41288 614.73062 716.46356 617.79011 716.08602 618.02344 C 715.70799 618.25707 715.00454 616.28049 713.58555 611.00391 C 710.83824 600.78792 710.07408 598.80644 708.75974 598.47656 C 706.79879 597.98439 706.16683 599.11347 704.32506 606.41211 C 702.79397 612.47958 701.59352 616.32143 701.04623 616.9043 C 700.35051 617.64525 699.77021 616.20109 698.27917 610.01953 C 696.55123 602.85586 695.52787 599.46284 694.66954 598.06055 C 694.28003 597.42418 694.1121 597.17677 693.94178 597.2168 z M 309.33056 597.21875 C 309.23767 597.21833 309.14593 597.2319 309.05813 597.25977 C 308.68862 597.37705 308.08437 598.18148 307.60844 599.1875 C 305.39058 603.87567 300.34054 618.67092 300.34054 620.48047 C 300.34054 622.86343 302.017 621.36048 303.59407 617.56445 C 305.31126 613.43113 306.43907 612.68849 310.47085 613.0293 C 314.13405 613.33895 314.41135 613.58066 316.02442 617.85742 C 316.43836 618.9549 317.13421 620.32133 317.57141 620.89453 C 318.54967 622.17709 319.35611 622.12393 319.48811 620.76758 C 319.59006 619.71994 317.28716 612.35075 315.01451 606.45312 C 312.68302 600.4028 310.72389 597.22503 309.33056 597.21875 z M 769.15631 597.2207 C 767.69578 597.229 766.03364 597.29141 764.25072 597.41016 C 758.26549 597.80878 755.57594 598.29711 755.57594 598.98242 C 755.57594 599.55515 756.81142 599.82419 759.65842 599.87109 C 761.62096 599.90344 761.95154 599.9958 762.47412 600.66016 C 763.29724 601.70659 763.77686 605.53103 764.09116 613.53711 C 764.23498 617.20037 764.51458 620.6158 764.7119 621.12695 C 765.05188 622.0077 765.09434 622.02699 765.49998 621.47461 C 766.30492 620.3785 766.60184 617.63587 766.82513 609.2793 C 766.98262 603.38493 767.16219 600.78244 767.43225 600.45703 C 767.66825 600.17267 768.65537 599.9182 770.00277 599.79297 C 772.35703 599.57417 773.92402 599.05369 774.56784 598.27734 C 774.90722 597.86809 774.88182 597.76412 774.41216 597.625 C 773.46513 597.34449 771.59054 597.20688 769.15631 597.2207 z M 648.69981 597.28125 C 645.92531 597.27103 643.64455 598.33122 641.11473 600.80664 C 639.53697 602.35048 639.27609 602.7816 638.93922 604.4043 C 638.40095 606.99714 638.65649 614.6023 639.32451 615.875 C 639.93324 617.03475 642.88283 619.93504 644.44609 620.91211 C 645.52844 621.5886 645.82676 621.62439 649.16293 621.48047 C 653.76552 621.28192 654.80182 620.92712 656.93482 618.8125 C 659.11952 616.64663 660.03019 614.43874 660.24478 610.78906 C 660.71833 602.73496 656.08129 597.30845 648.69981 597.28125 z M 150.97004 597.42969 C 149.74485 597.41004 148.54822 597.57005 147.49274 597.92969 C 145.64504 598.55927 142.76534 601.17888 141.63171 603.26172 C 140.4836 605.3712 140.21588 607.12452 140.52645 610.49023 C 140.94972 615.07734 141.45253 616.37266 143.67879 618.5957 C 144.73569 619.65107 146.08885 620.76362 146.68519 621.06836 C 147.59346 621.53247 148.32177 621.5982 151.17631 621.47852 C 153.18846 621.39417 155.17208 621.12833 156.01963 620.82812 C 163.42661 618.20445 164.77189 605.6664 158.2613 599.93555 C 156.49778 598.38324 153.66548 597.47291 150.97004 597.42969 z M 257.08143 597.42969 C 252.94385 597.42969 249.75027 599.52582 247.76062 603.55078 C 246.60439 605.88983 246.59308 605.95396 246.59308 609.64844 C 246.59308 613.08936 246.65946 613.52935 247.459 615.24219 C 248.83473 618.1894 251.45121 620.5715 254.28324 621.45703 C 256.40242 622.11966 259.04408 621.98952 261.15224 621.12109 C 263.52008 620.14572 264.06595 620.15832 264.93505 621.20508 C 265.62521 622.03632 265.65371 622.04183 266.10842 621.45508 C 266.46449 620.99561 266.57255 619.97352 266.57155 617.11914 C 266.56968 613.07291 266.2267 611.2234 265.39817 610.79297 C 264.04413 610.08954 259.6353 610.1503 258.90279 610.88281 C 258.54317 611.24243 259.37415 611.71785 261.18532 612.18945 C 262.18926 612.45086 263.18482 612.80881 263.3978 612.98437 C 264.46571 613.86468 263.2012 617.30693 261.22035 618.91016 C 258.32871 621.25056 253.342 619.83614 250.91296 615.98828 C 249.05284 613.04167 248.67762 607.61423 250.1132 604.39844 C 251.50276 601.28574 254.23264 599.30078 257.12424 599.30078 C 259.31735 599.30078 260.95266 600.15789 262.72452 602.23828 C 265.64983 605.67297 265.91484 605.90252 266.45868 605.45117 C 267.18549 604.84797 266.81238 602.85672 265.7173 601.49609 C 263.52362 598.77045 260.67438 597.42969 257.08143 597.42969 z M 454.77035 597.42969 C 447.87374 597.42969 443.34558 602.95977 443.86363 610.75 C 444.24834 616.53533 447.2643 620.6166 451.87098 621.58789 C 453.69602 621.9727 456.91105 621.74175 458.78667 621.0918 C 461.54652 620.13546 464.47243 616.37843 463.80707 614.64453 C 463.47677 613.78378 462.93188 614.10642 460.37452 616.67187 C 457.23415 619.82217 456.47065 620.18128 453.92 619.71875 C 449.20749 618.86421 447.82511 617.10276 447.1483 611.08594 C 446.61224 606.32049 447.13753 604.39279 449.6585 601.86719 C 451.33761 600.18499 452.85095 599.4787 454.80149 599.4707 C 457.15622 599.46058 458.96765 600.54049 461.64908 603.55078 L 463.9102 606.08984 L 463.90242 604.625 C 463.88284 600.41068 460.09911 597.42969 454.77035 597.42969 z M 809.51799 597.53711 C 809.45061 597.52652 809.38185 597.55878 809.30978 597.63086 C 807.6719 599.26874 807.22384 618.20309 808.7552 621.06445 C 809.08042 621.67211 809.11695 621.6756 809.50242 621.14844 C 810.10832 620.31982 810.52719 617.99609 810.75946 614.17187 L 810.96768 610.75 L 817.53311 610.75 L 824.09855 610.75 L 824.29703 614.54492 C 824.55499 619.46253 825.29416 622.16591 826.14563 621.31445 C 826.62432 620.83572 826.97207 610.52922 826.71383 604.4668 C 826.52042 599.92617 826.38754 598.86816 825.95687 598.4375 C 825.46691 597.94757 825.40098 597.94908 824.89247 598.45703 C 824.42955 598.91944 824.33339 599.7438 824.24449 604.09961 L 824.14136 609.20117 L 817.57203 609.20117 L 811.0027 609.20117 L 810.65633 604.16602 C 810.35081 599.72991 809.98964 597.61123 809.51799 597.53711 z M 589.75099 597.73828 L 589.53499 603.08203 C 589.20744 611.2313 589.43065 620.7599 589.96309 621.40039 C 591.17855 622.86246 591.81304 620.73296 591.83504 615.11914 L 591.85255 610.66016 L 595.05159 610.82422 C 599.9702 611.07525 600.61682 611.57153 602.38955 616.45508 C 603.63249 619.87916 604.68253 621.70839 605.28309 621.49805 C 605.97173 621.25686 605.58985 617.56168 604.5417 614.3125 C 603.25362 610.31943 603.2528 609.45635 604.53197 607.43945 C 605.32098 606.19539 605.58645 605.38511 605.70924 603.85547 C 606.08269 599.20303 603.37469 597.75494 594.28686 597.74414 L 589.75099 597.73828 z M 408.74808 597.89258 C 408.50706 597.89258 408.09917 598.31112 407.8413 598.82227 C 407.19407 600.1051 407.14031 620.10113 407.78097 621.22461 C 408.00548 621.61832 408.354 621.88631 408.55544 621.82031 C 409.50992 621.50764 409.70952 619.3678 409.70352 609.54297 C 409.69719 599.67869 409.5505 597.89258 408.74808 597.89258 z M 151.23858 599.33203 C 151.64341 599.32237 152.05557 599.34496 152.47422 599.40234 C 157.45105 600.08449 159.27085 603.23044 159.01825 610.7168 C 158.92006 613.62691 158.77199 614.5477 158.23989 615.55078 C 157.37084 617.18906 155.83505 618.62515 154.12044 619.40039 C 148.16779 622.0918 141.8274 615.11782 143.24291 607.43555 C 144.1374 602.58099 147.32516 599.42542 151.23858 599.33203 z M 648.92359 599.59766 C 651.42156 599.59766 653.38199 600.25596 654.99282 601.63477 C 656.58997 603.00187 657.03285 604.80494 657.04185 609.97461 C 657.04739 613.09761 656.94593 613.91811 656.40165 615.10742 C 655.70048 616.63956 653.87778 618.59071 652.45927 619.32617 C 651.1519 620.00399 648.60933 620.11228 647.0964 619.55469 C 645.35742 618.9138 643.27142 617.02425 642.41848 615.31641 C 640.3625 611.1997 640.95843 605.10187 643.7339 601.85937 C 645.17602 600.17457 646.5005 599.59766 648.92359 599.59766 z M 199.96953 599.90625 L 203.85742 599.90625 C 206.66188 599.90625 207.98935 600.03275 208.62096 600.35937 C 210.36612 601.26182 211.15961 605.49245 209.88774 607.10937 C 209.55016 607.53853 208.67889 608.13109 207.95157 608.42578 C 207.12059 608.76246 205.3916 609.02219 203.29895 609.125 L 199.96953 609.28906 L 199.96953 604.59766 L 199.96953 599.90625 z M 309.82287 600.06836 L 311.32899 603.62891 C 312.15671 605.58641 312.89647 607.83114 312.97327 608.61719 C 313.09366 609.84969 313.01375 610.11549 312.3895 610.55273 C 311.86516 610.92 311.02169 611.05286 309.3325 611.03516 C 306.51999 611.00567 306.22686 610.90567 306.22686 609.97461 C 306.22686 609.1368 307.77476 604.62686 308.99003 601.92383 L 309.82287 600.06836 z M 597.11813 600.07812 C 601.60204 600.05203 603.00445 601.14291 603.00445 604.65234 C 603.00445 606.63006 602.27614 607.77593 600.55263 608.50781 C 599.85291 608.80494 598.02275 609.03541 595.60033 609.13281 L 591.75915 609.28711 L 591.97903 605.80859 C 592.10013 603.8948 592.32314 602.00159 592.47523 601.60156 C 592.92076 600.42974 593.933 600.09662 597.11813 600.07812 z " />
    </g>
  </g>
</svg>
